<svg width="75" height="24" viewBox="0 0 75 24" fill="none" xmlns="http://www.w3.org/2000/svg">
<path d="M0.139662 5.31844C-0.0093138 5.01304 -0.039109 4.75233 0.0502765 4.53631C0.147111 4.3203 0.370574 4.21229 0.720668 4.21229H3.581C3.77467 4.21229 3.94227 4.26443 4.0838 4.36872C4.23277 4.473 4.33705 4.62197 4.39665 4.81564C4.52327 5.21043 4.66108 5.65363 4.81005 6.14525C4.96648 6.62942 5.12663 7.12477 5.2905 7.63128C5.46182 8.1378 5.62942 8.6406 5.79329 9.13967C5.95717 9.63873 6.10614 10.1006 6.24022 10.5251C6.38175 10.9423 6.50465 11.3073 6.60894 11.6201C6.72067 11.933 6.8026 12.1564 6.85475 12.2905L9.22346 4.81564C9.3203 4.57728 9.4283 4.41713 9.54748 4.33519C9.67411 4.25326 9.84916 4.21229 10.0726 4.21229H12.7207C12.9367 4.21229 13.1006 4.23836 13.2123 4.2905C13.324 4.34264 13.3985 4.41341 13.4358 4.50279C13.473 4.59218 13.4804 4.69646 13.4581 4.81564C13.4358 4.92737 13.3985 5.04655 13.3464 5.17318L12.1173 8.17877C12.1695 8.3054 12.27 8.52142 12.419 8.82682C12.568 9.12477 12.7356 9.46741 12.9218 9.85475C13.1155 10.2346 13.3091 10.6369 13.5028 11.0615C13.7039 11.4786 13.8715 11.8696 14.0056 12.2346L16.743 4.81564C16.8398 4.57728 16.9367 4.41713 17.0335 4.33519C17.1378 4.25326 17.2905 4.21229 17.4916 4.21229H19.9609C20.3184 4.21229 20.5642 4.27933 20.6983 4.41341C20.8324 4.54748 20.8398 4.80074 20.7207 5.17318L15.4804 17.9218C15.4134 18.0559 15.3091 18.1713 15.1676 18.2682C15.0335 18.3575 14.8361 18.4022 14.5754 18.4022H13.4022C13.1117 18.4022 12.8994 18.3575 12.7654 18.2682C12.6313 18.1713 12.5233 18.0484 12.4413 17.8994L10.3631 12.8268L8.31843 17.9218C8.2365 18.0559 8.13966 18.1713 8.02793 18.2682C7.9162 18.3575 7.7486 18.4022 7.52514 18.4022H6.19553C5.89758 18.4022 5.68529 18.3613 5.55866 18.2793C5.43948 18.1899 5.35009 18.0708 5.2905 17.9218L0.139662 5.31844Z" fill="#1C1B22"/>
<path d="M36.5733 4.34637C36.6701 4.26443 36.7707 4.21229 36.875 4.18994C36.9792 4.1676 37.0798 4.15642 37.1766 4.15642H38.8638C39.0053 4.15642 39.1208 4.17877 39.2102 4.22346C39.307 4.26816 39.3852 4.33147 39.4448 4.41341C39.5044 4.48789 39.5528 4.57728 39.59 4.68156C39.6347 4.7784 39.6757 4.88641 39.7129 5.00559L40.1822 6.35754C40.3908 6.08939 40.5994 5.8175 40.8079 5.5419C41.0239 5.25885 41.2772 5.00559 41.5677 4.78212C41.8582 4.55121 42.2046 4.36127 42.6068 4.21229C43.009 4.06331 43.5007 3.98883 44.0817 3.98883C45.1021 3.98883 46.0407 4.17877 46.8973 4.55866C47.7614 4.9311 48.5025 5.44879 49.1208 6.11173C49.7465 6.76722 50.2344 7.5419 50.5845 8.43575C50.9346 9.32216 51.1096 10.2831 51.1096 11.3184C51.1096 12.3464 50.9346 13.3073 50.5845 14.2011C50.2344 15.095 49.7465 15.8734 49.1208 16.5363C48.5025 17.1918 47.7614 17.7095 46.8973 18.0894C46.0407 18.4693 45.1021 18.6592 44.0817 18.6592C43.5975 18.6592 43.1804 18.5996 42.8303 18.4804C42.4802 18.3687 42.1673 18.2197 41.8917 18.0335C41.6236 17.8473 41.3852 17.6425 41.1766 17.419C40.9681 17.1955 40.7632 16.9721 40.5621 16.7486V21.9553C40.5621 22.1788 40.4951 22.3687 40.361 22.5251C40.2269 22.6816 40.0183 22.7598 39.7353 22.7598H37.1766C37.0872 22.7598 36.9904 22.7412 36.8861 22.7039C36.7818 22.6667 36.685 22.6145 36.5956 22.5475C36.5062 22.4804 36.4318 22.3948 36.3722 22.2905C36.3126 22.1937 36.2828 22.0819 36.2828 21.9553V4.98324C36.2828 4.83426 36.3088 4.71136 36.361 4.61452C36.4206 4.51769 36.4913 4.4283 36.5733 4.34637ZM47.009 11.3184C47.009 10.8417 46.9308 10.3911 46.7744 9.96648C46.618 9.53445 46.3982 9.15829 46.1152 8.83799C45.8321 8.51769 45.4932 8.26443 45.0984 8.07821C44.7036 7.89199 44.2679 7.79888 43.7912 7.79888C43.3219 7.79888 42.875 7.88827 42.4504 8.06704C42.0332 8.23836 41.6645 8.47672 41.3442 8.78212C41.0314 9.08007 40.7744 9.43389 40.5733 9.84357C40.3796 10.2533 40.2716 10.689 40.2493 11.1508V11.3184C40.2493 11.8101 40.3424 12.2719 40.5286 12.7039C40.7148 13.1359 40.9681 13.5121 41.2884 13.8324C41.6087 14.1453 41.9848 14.3948 42.4169 14.581C42.8489 14.7672 43.307 14.8603 43.7912 14.8603C44.2679 14.8603 44.7036 14.7672 45.0984 14.581C45.4932 14.3948 45.8321 14.1453 46.1152 13.8324C46.3982 13.5121 46.618 13.1359 46.7744 12.7039C46.9308 12.2719 47.009 11.8101 47.009 11.3184Z" fill="#1C1B22"/>
<path d="M53.3946 0.849162C53.3946 0.610801 53.4542 0.409683 53.5734 0.245809C53.6926 0.0819361 53.8974 0 54.1879 0H56.9254C56.9998 0 57.0781 0.0223465 57.16 0.0670396C57.2419 0.104283 57.3164 0.160149 57.3835 0.234637C57.4579 0.309125 57.5175 0.398511 57.5622 0.502793C57.6144 0.607077 57.6404 0.722533 57.6404 0.849162V17.5419C57.6404 17.825 57.5585 18.041 57.3946 18.1899C57.2382 18.3315 57.0334 18.4022 56.7801 18.4022H54.1879C53.8974 18.4022 53.6926 18.3315 53.5734 18.1899C53.4542 18.041 53.3946 17.825 53.3946 17.5419V0.849162Z" fill="#1C1B22"/>
<path d="M59.4986 5.28492C59.3794 4.98696 59.3757 4.73371 59.4874 4.52514C59.6066 4.30912 59.8636 4.20112 60.2584 4.20112H63.0182C63.2044 4.20112 63.3571 4.26071 63.4763 4.37989C63.5955 4.49162 63.6848 4.63315 63.7444 4.80447L66.9064 13.7989L70.0014 4.80447C70.0833 4.56611 70.1876 4.40596 70.3143 4.32402C70.4409 4.24209 70.6159 4.20112 70.8394 4.20112H73.7109C73.9195 4.20112 74.0833 4.23091 74.2025 4.2905C74.3217 4.34264 74.4036 4.41713 74.4483 4.51397C74.5005 4.60335 74.5191 4.70764 74.5042 4.82682C74.4893 4.93855 74.4595 5.05028 74.4148 5.16201C74.1318 5.8622 73.8226 6.62942 73.4874 7.46369C73.1522 8.2905 72.8022 9.15456 72.4372 10.0559C72.0796 10.9497 71.7146 11.8622 71.3422 12.7933C70.9698 13.7169 70.6048 14.6257 70.2472 15.5196C69.8971 16.4134 69.5582 17.2737 69.2305 18.1006C68.9027 18.9199 68.601 19.6723 68.3254 20.3575C68.0573 21.0503 67.8226 21.6574 67.6215 22.1788C67.4204 22.7002 67.2677 23.1024 67.1634 23.3855L67.1969 23.3296C67.1448 23.5307 67.0517 23.6909 66.9176 23.8101C66.7835 23.9367 66.6197 24 66.426 24H63.845C63.5098 24 63.2789 23.933 63.1522 23.7989C63.0331 23.6723 62.9735 23.4823 62.9735 23.229C62.9735 23.1322 62.9846 23.0577 63.007 23.0056C63.0368 22.9534 63.0591 22.9199 63.074 22.905L64.8282 18.3464L59.4986 5.28492Z" fill="#1C1B22"/>
<path d="M28.3512 4.06494L19.6077 12.8747L28.3512 21.6514C30.5106 19.492 29.251 17.1527 28.3512 16.2529L26.894 14.7957H31.9282C32.7782 14.884 34.4784 14.6235 34.4784 12.8747C34.4784 11.126 32.7782 10.8213 31.9282 10.8876H26.894L28.3512 9.43031C30.4179 7.28416 29.2123 4.95917 28.3512 4.06494Z" fill="#3563E9"/>
</svg>
