<svg width="34" height="35" viewBox="0 0 34 35" fill="none" xmlns="http://www.w3.org/2000/svg">
<path fill-rule="evenodd" clip-rule="evenodd" d="M33.128 18.1146C33.128 16.9233 33.0211 15.7779 32.8225 14.6782H17V21.1768H26.0414C25.652 23.2768 24.4684 25.056 22.6891 26.2473V30.4626H28.1185C31.2952 27.5378 33.128 23.2309 33.128 18.1146Z" fill="#4285F4"/>
<path fill-rule="evenodd" clip-rule="evenodd" d="M16.9999 34.5323C21.5359 34.5323 25.3388 33.0279 28.1184 30.4621L22.689 26.2469C21.1846 27.2549 19.2602 27.8505 16.9999 27.8505C12.6243 27.8505 8.92062 24.8952 7.59953 20.9243H1.98682V25.277C4.75118 30.7676 10.4326 34.5323 16.9999 34.5323Z" fill="#34A853"/>
<path fill-rule="evenodd" clip-rule="evenodd" d="M7.59958 20.9242C7.26358 19.9162 7.07267 18.8395 7.07267 17.7322C7.07267 16.6249 7.26358 15.5482 7.59958 14.5402V10.1875H1.98686C0.849041 12.4555 0.199951 15.0213 0.199951 17.7322C0.199951 20.4431 0.849041 23.0089 1.98686 25.2769L7.59958 20.9242Z" fill="#FBBC05"/>
<path fill-rule="evenodd" clip-rule="evenodd" d="M16.9999 7.61443C19.4664 7.61443 21.681 8.46206 23.4221 10.1268L28.2406 5.30825C25.3311 2.59734 21.5282 0.932617 16.9999 0.932617C10.4326 0.932617 4.75118 4.69734 1.98682 10.1879L7.59953 14.5406C8.92062 10.5697 12.6243 7.61443 16.9999 7.61443Z" fill="#EA4335"/>
</svg>
