<svg width="32" height="30" viewBox="0 0 32 30" fill="none" xmlns="http://www.w3.org/2000/svg">
<path d="M15.9888 0.594727C7.37098 0.594727 0.421143 6.15453 0.421143 12.9042C0.421143 17.2854 3.31227 21.1217 7.64897 23.3123L6.18117 28.7944C6.15349 28.8765 6.14923 28.9647 6.16887 29.0491C6.18851 29.1336 6.23127 29.2109 6.29236 29.2724C6.38144 29.351 6.49606 29.3944 6.61483 29.3947C6.71331 29.3868 6.80675 29.3479 6.88171 29.2836L13.1977 25.0247C14.13 25.1534 15.0699 25.2202 16.011 25.2248C24.6177 25.2248 31.5786 19.665 31.5786 12.9042C31.5786 6.14341 24.5954 0.594727 15.9888 0.594727Z" fill="#392020"/>
</svg>
